#!OML:ASF E:\emotionWalksFemale\Project 1\Capture day 1\Session 1\Female1.ASF
:FULLY-SPECIFIED
:DEGREES
1046
root 10.4185 15.3915 -15.8057 -179.077 -187.364 -177.08
lowerback 10.434 0.107298 -4.86658
upperback -3.05815 -0.614967 -0.889978
thorax -9.11109 -0.0515859 1.90284
lowerneck -5.63409 -5.3484 -9.24726
upperneck 10.9746 -7.38694 9.18809
head 4.89402 -3.50961 3.89849
rclavicle -1.30918e-014 -2.38542e-015
rhumerus -74.3107 18.5704 -96.3254
rradius 52.3521
rwrist 8.32632
rhand 16.8901 -63.6763
rfingers 7.12502
rthumb 41.6278 631.61
lclavicle -1.30918e-014 -2.38542e-015
lhumerus -24.5772 -27.391 67.4957
lradius 68.6479
lwrist -3.39021
lhand -13.7411 -31.6427
lfingers 7.12502
lthumb 12.3788 -2.0292
rfemur -23.9094 2.42276 24.2951
rtibia 27.8561
rfoot -11.7396 -27.8627
rtoes -0.634546
lfemur 8.79224 -5.25005 -27.0153
ltibia 33.7603
lfoot -2.92484 -1.65839
ltoes -23.4856
1047
root 10.4004 15.4189 -15.5518 -179.207 -187.238 -177.336
lowerback 10.3162 0.227945 -4.61528
upperback -3.13322 -0.416097 -0.914956
thorax -9.13819 0.0311806 1.69822
lowerneck -5.62494 -5.37969 -9.30592
upperneck 11.4649 -7.47188 9.30437
head 5.0571 -3.54448 3.93792
rclavicle -1.97853e-014 5.96354e-016
rhumerus -73.4383 18.2208 -95.6525
rradius 52.0497
rwrist 8.96486
rhand 18.0267 -64.0485
rfingers 7.12502
rthumb 42.6926 631.598
lclavicle -1.97853e-014 5.96354e-016
lhumerus -26.0335 -27.1515 67.7953
lradius 69.1273
lwrist -3.32581
lhand -14.6844 -32.32
lfingers 7.12502
lthumb 11.4691 -2.65376
rfemur -22.4172 3.27092 24.8044
rtibia 26.9657
rfoot -11.668 -29.0945
rtoes 0.528817
lfemur 7.00511 -3.43523 -25.6877
ltibia 37.8352
lfoot 0.911108 -2.96094
ltoes -21.9723
1048
root 10.3835 15.4444 -15.3009 -179.293 -187.134 -177.607
lowerback 10.2605 0.371774 -4.26893
upperback -3.24245 -0.17931 -0.954612
thorax -9.23897 0.127981 1.41777
lowerneck -5.73356 -5.45191 -9.27834
upperneck 11.8435 -7.59359 9.32815
head 5.20351 -3.59604 3.92834
rclavicle 8.55395e-015 -1.39149e-015
rhumerus -72.4235 17.9594 -95.0514
rradius 51.7495
rwrist 9.04774
rhand 17.9466 -64.2928
rfingers 7.12502
rthumb 42.6176 631.327
lclavicle 8.55395e-015 -1.39149e-015
lhumerus -27.4168 -27.0569 68.1955
lradius 69.3514
lwrist -3.2752
lhand -15.5253 -33.1994
lfingers 7.12502
lthumb 10.6581 -3.48971
rfemur -21.0133 4.16952 25.294
rtibia 26.052
rfoot -11.301 -30.1907
rtoes 3.28072
lfemur 5.06232 -1.97933 -24.4403
ltibia 42.0489
lfoot 4.2431 -4.18662
ltoes -21.9158
1049
root 10.3678 15.4678 -15.0593 -179.366 -187.048 -178.063
lowerback 10.2453 0.47481 -3.74085
upperback -3.34849 0.0331357 -0.916642
thorax -9.35421 0.204436 1.12215
lowerneck -5.70587 -5.5167 -9.09777
upperneck 12.0138 -7.68917 9.13715
head 5.24624 -3.64539 3.83119
rclavicle -9.97651e-015 6.16232e-015
rhumerus -71.2685 17.888 -94.4895
rradius 51.3718
rwrist 9.0762
rhand 17.2082 -64.2923
rfingers 7.12502
rthumb 41.926 631.093
lclavicle -9.97651e-015 6.16232e-015
lhumerus -28.9191 -26.8154 68.6494
lradius 69.5626
lwrist -3.36309
lhand -16.2564 -34.0712
lfingers 7.12502
lthumb 9.95279 -4.32648
rfemur -19.7368 4.6795 26.0634
rtibia 25.3153
rfoot -10.452 -30.6225
rtoes 5.6718
lfemur 2.881 -0.966024 -23.1331
ltibia 46.4178
lfoot 6.72368 -5.4466
ltoes -21.2511
1050
root 10.3588 15.4836 -14.823 -179.368 -186.811 -178.676
lowerback 10.152 0.59354 -2.98522
upperback -3.41826 0.308464 -0.819273
thorax -9.38084 0.297369 0.751001
lowerneck -5.44555 -5.55673 -9.07223
upperneck 11.7803 -7.75208 9.14632
head 5.13536 -3.683 3.83186
rclavicle 1.63873e-014 -1.59028e-015
rhumerus -69.8789 17.7664 -93.6402
rradius 51.078
rwrist 9.65553
rhand 16.7874 -64.2705
rfingers 7.12502
rthumb 41.5314 630.984
lclavicle 1.63873e-014 -1.59028e-015
lhumerus -30.4928 -26.2928 69.1977
lradius 69.7719
lwrist -3.72591
lhand -16.993 -34.9651
lfingers 7.12502
lthumb 9.24207 -5.18763
rfemur -18.6443 4.75671 27.0577
rtibia 24.807
rfoot -10.175 -30.1668
rtoes 6.83725
lfemur 0.440586 -0.234764 -21.8524
ltibia 50.9014
lfoot 8.13879 -6.55401
ltoes -22.2592
1051
root 10.3557 15.4857 -14.5851 -179.222 -186.529 -179.267
lowerback 9.8484 0.71456 -2.1823
upperback -3.45671 0.596585 -0.754306
thorax -9.24343 0.390886 0.319428
lowerneck -5.25592 -5.62266 -9.09729
upperneck 11.4517 -7.85056 9.28889
head 5.01811 -3.73165 3.87869
rclavicle -2.21272e-014 -2.5842e-015
rhumerus -68.2207 17.6959 -92.8014
rradius 50.6656
rwrist 10.2389
rhand 16.2835 -64.1048
rfingers 7.12502
rthumb 41.0584 630.997
lclavicle -2.21272e-014 -2.5842e-015
lhumerus -32.1359 -25.6023 69.6913
lradius 70.1448
lwrist -4.16553
lhand -18.0259 -35.1912
lfingers 7.12502
lthumb 8.24535 -5.37214
rfemur -17.7077 4.65294 28.0078
rtibia 24.4035
rfoot -10.0932 -29.4606
rtoes 6.74951
lfemur -2.18678 0.307242 -20.7438
ltibia 55.358
lfoot 7.96666 -7.2702
ltoes -27.0418
1052
root 10.352 15.4813 -14.3507 -178.95 -186.275 -180.111
lowerback 9.45266 0.779043 -1.20654
upperback -3.50494 0.837273 -0.578783
thorax -9.05454 0.456349 -0.0798885
lowerneck -5.18703 -5.64066 -9.11221
upperneck 11.0744 -7.86903 9.41413
head 4.89818 -3.73913 3.92174
rclavicle 1.17283e-014 5.56597e-015
rhumerus -66.2155 17.9015 -92.059
rradius 49.985
rwrist 10.6376
rhand 15.0697 -63.4527
rfingers 7.12502
rthumb 39.9173 631.296
lclavicle 1.17283e-014 5.56597e-015
lhumerus -33.8716 -24.7444 70.1456
lradius 70.5279
lwrist -4.46725
lhand -19.5465 -35.2947
lfingers 7.12502
lthumb 6.77761 -5.42318
rfemur -16.9225 4.38198 29.2127
rtibia 24.019
rfoot -10.4657 -28.978
rtoes 7.62636
lfemur -5.08363 0.760032 -19.4355
ltibia 59.6493
lfoot 6.7602 -7.16489
ltoes -32.1135
1053
root 10.3467 15.471 -14.1259 -178.659 -185.836 -181.263
lowerback 9.1851 0.875979 0.0182348
upperback -3.59214 1.15277 -0.295298
thorax -8.97523 0.548612 -0.517695
lowerneck -5.12962 -5.65487 -9.13283
upperneck 10.7032 -7.87553 9.49738
head 4.77986 -3.74313 3.95318
rclavicle -8.58501e-015 1.98785e-016
rhumerus -64.0794 18.1243 -91.2431
rradius 49.436
rwrist 11.0599
rhand 13.5521 -63.1184
rfingers 7.12502
rthumb 38.487 631.217
lclavicle -8.58501e-015 1.98785e-016
lhumerus -35.5858 -23.7489 70.6612
lradius 70.509
lwrist -4.86362
lhand -20.8992 -36.4547
lfingers 7.12502
lthumb 5.47172 -6.54531
rfemur -16.2239 4.10855 30.7406
rtibia 23.6277
rfoot -11.5228 -28.7394
rtoes 9.64195
lfemur -8.13291 1.27929 -17.8777
ltibia 63.6723
lfoot 5.77254 -5.91235
ltoes -33.1517
1054
root 10.3425 15.4566 -13.9075 -178.409 -185.251 -182.379
lowerback 8.97421 1.07214 1.1227
upperback -3.62869 1.58181 0.015122
thorax -8.86775 0.704636 -0.876214
lowerneck -5.12125 -5.77559 -9.03958
upperneck 10.5035 -8.01779 9.35242
head 4.72209 -3.81842 3.88241
rclavicle 9.60378e-015 -5.96354e-016
rhumerus -61.9352 18.3194 -90.3402
rradius 49.089
rwrist 11.3591
rhand 11.8108 -63.177
rfingers 7.12502
rthumb 36.8417 630.718
lclavicle 9.60378e-015 -5.96354e-016
lhumerus -37.1492 -22.7363 71.3015
lradius 70.155
lwrist -5.40956
lhand -21.8689 -37.606
lfingers 7.12502
lthumb 4.53538 -7.67458
rfemur -15.4305 4.0306 32.1937
rtibia 23.1329
rfoot -11.9637 -28.5951
rtoes 9.94159
lfemur -11.1564 1.78448 -16.4524
ltibia 67.3177
lfoot 4.34032 -4.79598
ltoes -31.4554
